#!OML:ASF F:\VICON\USERDATA\INSTALL\rory3\rory3.ASF
:FULLY-SPECIFIED
:DEGREES
241
root -1.49479 17.0047 13.725 249.729 85.2411 241.898
lowerback -7.41587 8.1669 1.62384
upperback -13.7258 11.9131 -0.903733
thorax -10.1199 6.1095 -2.04467
lowerneck -10.6991 5.05867 3.95068
upperneck 32.1222 4.72675 11.6251
head 12.2072 4.81548 4.54206
rclavicle -2.62396e-014 -3.02153e-014
rhumerus 192.712 -231.268 128.959
rradius 81.6068
rwrist -19.1295
rhand 12.2112 15.1777
rfingers 7.12502
rthumb 37.2204 -10.8295
lclavicle -2.62396e-014 -3.02153e-014
lhumerus 5.42596 3.5385 74.1475
lradius 19.0609
lwrist -26.0088
lhand -11.5446 22.6336
lfingers 7.12502
lthumb 14.4958 52.1072
rfemur -80.9723 -11.2064 72.7168
rtibia 95.2534
rfoot 51.6592 -20.1148
rtoes 0.124856
lfemur -27.5256 -20.3123 -14.7267
ltibia 30.6188
lfoot -24.6343 15.851
ltoes 17.9476
242
root -1.56051 16.9722 13.7089 319.99 86.0118 311.822
lowerback -7.10781 7.93832 1.21096
upperback -13.6681 11.5242 -1.14464
thorax -10.2599 5.90475 -2.12374
lowerneck -11.0848 4.45463 3.86424
upperneck 32.1812 3.83901 10.9817
head 12.3723 4.27424 4.2123
rclavicle -1.27222e-014 -3.18055e-015
rhumerus 194.029 -231.939 129.27
rradius 81.7114
rwrist -19.0877
rhand 11.5933 15.344
rfingers 7.12502
rthumb 36.636 -10.8137
lclavicle -1.27222e-014 -3.18055e-015
lhumerus 5.34567 0.647697 72.4375
lradius 20.0665
lwrist -22.7087
lhand -11.2513 23.3002
lfingers 7.12502
lthumb 14.7784 52.7533
rfemur -80.6328 -10.5194 72.0293
rtibia 94.6425
rfoot 43.1718 -35.0732
rtoes 30.804
lfemur -28.2777 -22.5798 -15.2525
ltibia 30.9018
lfoot -22.3775 15.3367
ltoes 12.3769
243
root -1.62788 16.9743 13.7489 333.196 81.1426 325.212
lowerback -6.10189 7.754 3.6253
upperback -13.5792 11.2836 -0.446488
thorax -10.4499 5.54581 -2.78225
lowerneck -11.5371 3.82081 4.15586
upperneck 32.1655 2.82591 10.3233
head 12.5374 3.72135 3.78664
rclavicle 1.13506e-013 5.00937e-014
rhumerus 195.452 -232.617 129.546
rradius 81.9883
rwrist -18.835
rhand 11.2441 14.0296
rfingers 7.12502
rthumb 36.3054 -12.2113
lclavicle 1.13506e-013 5.00937e-014
lhumerus 5.40707 -2.32378 70.1977
lradius 21.1124
lwrist -19.5305
lhand -11.9276 24.4108
lfingers 7.12502
lthumb 14.1267 53.9106
rfemur -78.5572 -10.5238 74.6297
rtibia 92.5214
rfoot 43.7097 -32.5122
rtoes 26.9813
lfemur -28.38 -24.7355 -12.0112
ltibia 31.2251
lfoot -20.9703 13.7914
ltoes 9.86224
244
root -1.6782 16.9301 13.6203 363.488 77.9115 354.547
lowerback -6.39138 7.36376 1.69055
upperback -13.6989 10.5868 -1.89288
thorax -10.4862 5.28394 -3.24764
lowerneck -12.1722 3.27605 4.93951
upperneck 32.2071 1.81447 9.65823
head 12.7712 3.23912 3.27723
rclavicle -2.08724e-014 -6.36111e-015
rhumerus 197.249 -232.765 129.108
rradius 80.9336
rwrist -18.6484
rhand 9.47212 14.6238
rfingers 7.12502
rthumb 34.6255 -12.0189
lclavicle -2.08724e-014 -6.36111e-015
lhumerus 5.85982 -1.8308 68.3818
lradius 21.3476
lwrist -20.0438
lhand -13.5482 25.1675
lfingers 7.12502
lthumb 12.5647 54.7697
rfemur -81.5015 -9.66007 71.4193
rtibia 92.8697
rfoot 45.6221 -29.973
rtoes 23.7183
lfemur -30.2289 -28.7594 -14.9098
ltibia 31.3555
lfoot -20.3155 13.6523
ltoes 10.197
245
root -1.73681 16.9085 13.6258 367.181 72.7959 357.693
lowerback -6.25357 6.9583 1.01531
upperback -13.7363 10.0305 -1.46082
thorax -10.8365 5.07155 -2.4677
lowerneck -12.7289 2.87725 4.73696
upperneck 32.5196 1.16304 9.37113
head 13.0434 2.86427 3.13716
rclavicle 3.71727e-014 -1.98785e-015
rhumerus 199.741 -233.76 130.046
rradius 80.5086
rwrist -19.0829
rhand 8.77965 14.8541
rfingers 7.12502
rthumb 33.968 -11.9367
lclavicle 3.71727e-014 -1.98785e-015
lhumerus 5.69081 -3.25329 66.1068
lradius 22.301
lwrist -17.5504
lhand -14.4976 26.4114
lfingers 7.12502
lthumb 11.6493 56.0676
rfemur -81.2497 -8.37435 71.5517
rtibia 91.2483
rfoot 47.5875 -26.539
rtoes 20.1703
lfemur -31.6212 -31.1566 -13.8636
ltibia 31.8601
lfoot -20.1026 12.9969
ltoes 10.3711
